<svg width="153" height="174" viewBox="0 0 153 174" fill="none" xmlns="http://www.w3.org/2000/svg">
<path d="M2.76338 148.229L98.8371 23.8984L147.705 23.8984L55.3987 148.229L2.76338 148.229Z" fill="#F40058"/>
<path opacity="0.25" d="M2.76329 148.229L8.49991 140.423L60.9999 140.423L55.3987 148.229L2.76329 148.229Z" fill="black"/>
<path d="M50.2812 128.395C49.6535 129.226 48.9047 129.843 48.0347 130.245C47.1628 130.633 46.2603 130.777 45.3271 130.675C44.3998 130.566 43.5323 130.207 42.7245 129.597C41.9168 128.987 41.3365 128.247 40.9835 127.377C40.6306 126.508 40.5254 125.603 40.668 124.664C40.8087 123.711 41.1928 122.819 41.8205 121.988C42.3297 121.314 42.9122 120.787 43.5678 120.408C44.2235 120.029 44.9199 119.816 45.6571 119.769L45.8403 121.459C44.7472 121.569 43.8721 122.06 43.2148 122.93C42.7885 123.495 42.532 124.095 42.4454 124.732C42.351 125.362 42.4287 125.969 42.6784 126.551C42.928 127.134 43.3313 127.636 43.8881 128.056C44.4449 128.476 45.0376 128.727 45.6662 128.808C46.2949 128.888 46.9034 128.8 47.4919 128.542C48.0725 128.279 48.576 127.865 49.0023 127.3C49.6596 126.43 49.8878 125.451 49.6869 124.363L51.374 124.086C51.5309 124.807 51.5138 125.539 51.3227 126.282C51.1376 127.016 50.7904 127.721 50.2812 128.395Z" fill="white"/>
<path d="M56.631 119.985C55.9974 120.824 55.2456 121.445 54.3757 121.847C53.4979 122.243 52.5923 122.391 51.6591 122.289C50.7181 122.182 49.8476 121.826 49.0477 121.222C48.2478 120.618 47.6714 119.882 47.3185 119.012C46.9577 118.136 46.8516 117.225 47.0001 116.278C47.1407 115.325 47.5278 114.429 48.1614 113.59C48.795 112.751 49.5507 112.133 50.4285 111.737C51.2985 111.335 52.2001 111.185 53.1333 111.286C54.0665 111.387 54.937 111.743 55.7447 112.353C56.5525 112.963 57.1328 113.703 57.4857 114.573C57.8386 115.442 57.9448 116.354 57.8041 117.306C57.6556 118.253 57.2646 119.146 56.631 119.985ZM55.29 118.973C55.7045 118.424 55.956 117.838 56.0444 117.215C56.1251 116.587 56.0406 115.981 55.7909 115.398C55.5334 114.81 55.1301 114.308 54.5812 113.894C54.0322 113.479 53.4434 113.232 52.8148 113.151C52.1783 113.065 51.5727 113.149 50.998 113.405C50.4155 113.654 49.9169 114.054 49.5024 114.603C49.088 115.152 48.8404 115.74 48.7597 116.369C48.6713 116.992 48.7558 117.597 49.0133 118.186C49.263 118.768 49.6623 119.267 50.2113 119.681C50.7602 120.096 51.3529 120.346 51.9894 120.433C52.6181 120.514 53.2237 120.429 53.8062 120.179C54.3809 119.924 54.8755 119.522 55.29 118.973Z" fill="white"/>
<path d="M66.7969 106.277L61.3298 102.167L63.8041 108.284L63.2889 108.966L56.7995 108.314L62.1871 112.382L61.0858 113.841L52.8515 107.623L53.8018 106.365L61.7292 107.216L58.6958 99.8831L59.6462 98.6244L67.8893 104.83L66.7969 106.277Z" fill="white"/>
<path d="M61.3344 96.3884L62.4891 94.8592L70.7234 101.077L69.5687 102.606L61.3344 96.3884Z" fill="white"/>
<path d="M69.6953 85.3152L77.9296 91.5326L76.9793 92.7913L67.975 93.1219L73.5508 97.3319L72.4051 98.8494L64.1707 92.632L65.1211 91.3733L74.1254 91.0427L68.5495 86.8327L69.6953 85.3152Z" fill="white"/>
<path d="M79.6299 80.5236L80.7224 79.0767L84.0044 81.5547C84.0218 82.2328 83.9076 82.9223 83.6616 83.6231C83.4157 84.324 83.0677 84.9724 82.6176 85.5684C81.9841 86.4075 81.2323 87.0281 80.3623 87.4301C79.4845 87.8263 78.579 87.9737 77.6458 87.8724C76.7126 87.7711 75.8421 87.4155 75.0344 86.8056C74.2266 86.1957 73.6463 85.4559 73.2934 84.5861C72.9405 83.7163 72.8382 82.8079 72.9867 81.8611C73.1333 80.9006 73.5263 79.9968 74.1658 79.1498C74.6869 78.4597 75.2743 77.9182 75.9281 77.5253C76.5818 77.1324 77.2734 76.9096 78.0027 76.8569L78.2154 78.5321C77.1143 78.6857 76.2293 79.2056 75.5601 80.0918C75.122 80.6721 74.8527 81.2815 74.7524 81.9199C74.658 82.5505 74.7327 83.1609 74.9764 83.7513C75.2261 84.3339 75.6333 84.8383 76.1979 85.2646C76.7469 85.6791 77.3357 85.9267 77.9643 86.0073C78.5989 86.0802 79.2104 85.9878 79.7988 85.7303C80.3932 85.4649 80.9066 85.046 81.3388 84.4735C81.8244 83.8304 82.1095 83.1592 82.1943 82.4598L79.6299 80.5236Z" fill="white"/>
<path d="M90.9563 74.5247C90.4767 75.1599 89.9216 75.7074 89.2913 76.1672C88.6668 76.6192 88.0753 76.9052 87.5167 77.0253L86.7283 75.5988C87.2496 75.4629 87.78 75.217 88.3197 74.8611C88.8574 74.4914 89.3128 74.0595 89.6858 73.5654C90.1477 72.9537 90.3931 72.4249 90.4221 71.9788C90.4569 71.5249 90.3136 71.1766 89.9921 70.9338C89.7568 70.7562 89.4995 70.6974 89.2203 70.7574C88.9391 70.8037 88.6577 70.9236 88.376 71.1173C88.0943 71.311 87.7298 71.5898 87.2825 71.954C86.6598 72.4688 86.1259 72.8661 85.6809 73.1457C85.2417 73.4174 84.7587 73.576 84.2319 73.6215C83.7031 73.6532 83.1682 73.4648 82.627 73.0562C82.1722 72.7128 81.8523 72.2804 81.6672 71.7589C81.4803 71.2238 81.4636 70.6263 81.617 69.9664C81.7764 69.2987 82.1285 68.6041 82.6732 67.8826C83.0522 67.3807 83.488 66.934 83.9806 66.5426C84.4732 66.1511 84.9703 65.8677 85.472 65.6925L86.296 67.0718C85.8119 67.2727 85.3669 67.5277 84.961 67.837C84.5552 68.1462 84.2131 68.4851 83.9348 68.8537C83.4788 69.4575 83.2403 69.9854 83.2192 70.4374C83.204 70.8815 83.365 71.2308 83.7022 71.4855C83.9375 71.6631 84.1918 71.7258 84.4652 71.6736C84.7444 71.6136 85.0249 71.4868 85.3066 71.2931C85.5882 71.0995 85.9527 70.8206 86.4 70.4565C87.003 69.9514 87.531 69.562 87.9839 69.2883C88.429 69.0087 88.912 68.8501 89.4329 68.8124C89.9598 68.767 90.4898 68.9456 91.0231 69.3482C91.478 69.6916 91.7949 70.128 91.974 70.6572C92.159 71.1787 92.1719 71.7732 92.0125 72.4409C91.8531 73.1086 91.501 73.8032 90.9563 74.5247Z" fill="white"/>
<path d="M97.5192 65.8327C96.8856 66.6718 96.1339 67.2924 95.2639 67.6944C94.3861 68.0906 93.4806 68.238 92.5473 68.1367C91.6063 68.0295 90.7358 67.6739 89.9359 67.07C89.136 66.466 88.5596 65.7291 88.2067 64.8593C87.8459 63.9835 87.7398 63.0723 87.8883 62.1255C88.0289 61.1727 88.4161 60.2768 89.0496 59.4377C89.6832 58.5986 90.4389 57.981 91.3167 57.5848C92.1867 57.1828 93.0883 57.0324 94.0215 57.1337C94.9547 57.2349 95.8252 57.5905 96.6329 58.2004C97.4407 58.8103 98.021 59.5502 98.3739 60.42C98.7268 61.2898 98.833 62.2011 98.6923 63.1538C98.5438 64.1006 98.1528 64.9936 97.5192 65.8327ZM96.1782 64.8202C96.5927 64.2712 96.8442 63.6854 96.9327 63.0626C97.0133 62.434 96.9288 61.8284 96.6791 61.2459C96.4216 60.6574 96.0183 60.1559 95.4694 59.7414C94.9204 59.3269 94.3316 59.0794 93.703 58.9987C93.0665 58.9122 92.4609 58.9967 91.8862 59.2523C91.3037 59.502 90.8051 59.9013 90.3907 60.4502C89.9762 60.9992 89.7286 61.588 89.648 62.2166C89.5595 62.8393 89.644 63.4449 89.9015 64.0334C90.1512 64.616 90.5505 65.1145 91.0995 65.529C91.6484 65.9435 92.2411 66.194 92.8776 66.2806C93.5063 66.3612 94.1119 66.2767 94.6944 66.027C95.2691 65.7714 95.7637 65.3691 96.1782 64.8202Z" fill="white"/>
<path d="M104.996 55.9304C104.362 56.7695 103.611 57.3901 102.741 57.7921C101.863 58.1883 100.957 58.3357 100.024 58.2344C99.0831 58.1272 98.2126 57.7716 97.4127 57.1677C96.6128 56.5637 96.0364 55.8268 95.6835 54.957C95.3227 54.0812 95.2166 53.17 95.3651 52.2231C95.5057 51.2704 95.8929 50.3745 96.5264 49.5354C97.16 48.6963 97.9157 48.0787 98.7935 47.6825C99.6635 47.2805 100.565 47.1301 101.498 47.2314C102.432 47.3326 103.302 47.6882 104.11 48.2981C104.917 48.908 105.498 49.6479 105.851 50.5177C106.204 51.3875 106.31 52.2988 106.169 53.2515C106.021 54.1983 105.63 55.0913 104.996 55.9304ZM103.655 54.9178C104.069 54.3689 104.321 53.7831 104.409 53.1603C104.49 52.5317 104.406 51.9261 104.156 51.3436C103.898 50.7551 103.495 50.2536 102.946 49.8391C102.397 49.4246 101.808 49.1771 101.18 49.0964C100.543 49.0099 99.9377 49.0944 99.363 49.35C98.7805 49.5997 98.2819 49.999 97.8675 50.5479C97.453 51.0969 97.2054 51.6857 97.1248 52.3143C97.0363 52.937 97.1208 53.5426 97.3783 54.1311C97.628 54.7136 98.0273 55.2122 98.5763 55.6267C99.1252 56.0412 99.7179 56.2917 100.354 56.3782C100.983 56.4589 101.589 56.3744 102.171 56.1247C102.746 55.8691 103.241 55.4668 103.655 54.9178Z" fill="white"/>
<path d="M106.741 36.2517L114.975 42.4691L114.025 43.7278L105.021 44.0584L110.597 48.2684L109.451 49.7859L101.216 43.5685L102.167 42.3098L111.171 41.9792L105.595 37.7692L106.741 36.2517Z" fill="white"/>
</svg>
