<svg version="1.0" xmlns="http://www.w3.org/2000/svg"
 width="110.000000pt" height="110.000000pt" viewBox="0 0 110.000000 110.000000"
 preserveAspectRatio="xMidYMid meet">

<g transform="translate(0.000000,110.000000) scale(0.100000,-0.100000)"
fill="#393939" stroke="none">
<path d="M468 985 c-20 -14 -39 -34 -43 -45 -3 -11 -10 -20 -15 -20 -5 0 -21
-25 -36 -56 -21 -42 -29 -76 -32 -134 -6 -104 0 -123 58 -180 39 -39 59 -50
95 -55 83 -13 130 1 184 54 43 43 50 55 56 102 15 128 -32 264 -114 327 -53
40 -101 43 -153 7z m50 -171 c20 -14 24 -14 44 0 24 17 65 21 84 8 6 -4 16
-23 23 -43 9 -29 9 -42 -4 -72 -8 -20 -19 -37 -25 -37 -5 0 -6 -15 -3 -34 7
-46 -22 -66 -97 -66 -75 0 -104 20 -97 66 3 19 2 34 -2 34 -4 0 -16 17 -25 38
-17 39 -12 76 16 109 14 18 59 16 86 -3z"/>
<path d="M446 761 c-3 -5 0 -11 7 -13 17 -7 38 2 31 13 -7 12 -31 12 -38 0z"/>
<path d="M596 761 c-3 -5 0 -11 7 -13 17 -7 38 2 31 13 -7 12 -31 12 -38 0z"/>
<path d="M502 674 c4 -21 22 -23 26 -1 2 10 -3 17 -13 17 -10 0 -15 -6 -13
-16z"/>
<path d="M552 674 c4 -21 22 -23 26 -1 2 10 -3 17 -13 17 -10 0 -15 -6 -13
-16z"/>
<path d="M510 596 c0 -10 28 -13 41 -5 10 6 7 9 -13 9 -16 0 -28 -2 -28 -4z"/>
<path d="M393 477 c-7 -15 -19 -27 -27 -27 -8 0 -21 -6 -28 -13 -7 -7 -32 -19
-55 -26 l-43 -14 0 -109 c0 -89 3 -108 15 -108 8 0 15 -4 15 -10 0 -5 11 -10
25 -10 14 0 25 -4 25 -10 0 -6 30 -10 70 -10 l70 0 0 30 c0 17 -4 30 -8 30 -5
0 -14 53 -21 118 -7 64 -16 133 -20 151 l-6 34 -12 -26z"/>
<path d="M677 463 c-4 -21 -9 -68 -13 -105 -4 -38 -11 -68 -15 -68 -5 0 -9
-16 -9 -35 0 -24 -5 -35 -15 -35 -8 0 -15 -7 -15 -16 0 -14 9 -15 68 -9 37 4
69 11 70 16 2 5 26 9 53 9 l49 0 0 89 0 89 -45 11 c-25 6 -45 16 -45 21 0 6
-9 10 -20 10 -12 0 -28 13 -39 30 l-18 31 -6 -38z"/>
<path d="M528 413 c-2 -4 -5 -55 -6 -113 -2 -58 -5 -113 -8 -122 -4 -15 1 -18
25 -18 18 0 31 5 32 13 1 11 0 72 -5 202 -1 28 -6 41 -18 43 -9 2 -18 -1 -20
-5z"/>
</g>
</svg>
