<svg width="48" height="38" fill="none" xmlns="http://www.w3.org/2000/svg">
<path d="M10.14 30.215c.246-.167.476-.418.59-.773a1.547 1.547 0 0 0-.013-.955l.047-.277c.131.073.282.173.454.294l.16.113.218.155c.096.066.232.16.375.235 3.807 2.366 6.954 3.341 9.454 3.22 2.585-.124 4.398-1.425 5.333-3.322.904-1.835.935-4.107.302-6.213-.638-2.119-1.978-4.178-3.976-5.604-3.367-2.401-6.453-6.053-8.013-9.158-.792-1.576-1.107-2.848-1.024-3.679.038-.386.157-.62.298-.77.142-.15.4-.317.898-.399 1.054-.173 2.273-.553 3.51-.938.48-.15.962-.3 1.44-.44 1.782-.52 3.67-.959 5.653-.955 3.848.007 8.363 1.678 13.118 8.627 6.107 8.927 2.754 18.903-4.282 24.143-3.509 2.614-7.887 4-12.385 3.473-4.05-.474-8.293-2.513-12.157-6.777Zm.708-2.31-.004.007a.05.05 0 0 1 .004-.007Zm-.382.174.012.002a.05.05 0 0 1-.012-.002Z" fill="#fff" stroke="#455A64"/>
<path d="M13.636 3.538S24.546.633 26.936.633c2.389 0 11.934 4.635 14.72 13.106 3.949 12.008-6.793 19.882-8.006 19.11 11.556-9.555-7.36-27.217-16.657-25.89-1.162.167-.516 1.163-.516 1.163l-.258 2.582-1.937-3.228-.646-3.938Z" fill="#455A64"/>
<path d="M40.066 10.126c3.446 6.065 2.73 2.593 1.965 9.526 1.415-2.29 3.628-.575 4.542.3.164.157.434.06.427-.167-.035-1.028-.33-3.25-2.032-5.635-2.335-3.269-4.902-4.024-4.902-4.024Z" fill="#455A64"/>
<path d="m42.03 19.652.338-.833m-.337.833c.764-6.933 1.48-3.46-1.965-9.526 0 0 2.567.755 4.902 4.024 1.702 2.385 1.997 4.607 2.032 5.635.008.227-.263.324-.427.168-.914-.876-3.127-2.59-4.542-.3Z" stroke="#455A64"/>
<path d="M12.345 18.727c-1.454 2.462-4.436 2.277-4.38 5.212 2.665 5.92 2.68 5.495 2.68 5.495 4.936-2.772 2.908-8.893 2.175-10.694-.082-.203-.363-.202-.475-.013Z" fill="#455A64"/>
<path d="M1.16 24.17c2.834.369 4.524-2.095 6.802-.243 3.024 5.744 2.68 5.495 2.68 5.495-5.222 2.181-8.797-3.185-9.765-4.87-.11-.191.064-.411.282-.383ZM24.934 20.517s2.841 2.906 1.356 3.358c-1.852-1.14-5.17-.254-6.796.294-.4.135-.793-.22-.648-.617.552-1.522 1.918-4.339 4.539-4.713 1.55-.388 1.55 1.678 1.55 1.678Z" fill="#455A64"/>
<path d="M26.677 6.314c-.323-.452-.968-1.679 1.033-1.679 2.002 0 5.06 2.266 5.682 3.105-.194.51-1.485.625-2.13.575-.646-.05-1.744-.156-2.583-.575-.84-.42-1.679-.974-2.002-1.426Z" fill="#fff"/>
</svg>