<svg version="1.0" xmlns="http://www.w3.org/2000/svg"
 width="113.000000pt" height="121.000000pt" viewBox="0 0 113.000000 121.000000"
 preserveAspectRatio="xMidYMid meet">

<g transform="translate(0.000000,121.000000) scale(0.100000,-0.100000)"
fill="#5c5c5c" stroke="none">
<path d="M0 605 l0 -605 565 0 565 0 0 605 0 605 -565 0 -565 0 0 -605z m713
484 c109 -37 188 -94 252 -184 67 -93 87 -153 93 -275 4 -93 2 -113 -20 -176
-58 -166 -180 -282 -347 -331 -77 -22 -236 -14 -311 16 -105 43 -197 122 -257
221 -67 110 -83 286 -39 411 57 162 196 291 353 328 74 17 209 13 276 -10z"/>
<path d="M420 1061 c-201 -64 -330 -241 -330 -451 0 -213 130 -390 333 -452
89 -27 224 -22 309 11 72 28 160 96 209 161 103 137 118 345 37 504 -27 53
-122 152 -176 183 -106 62 -267 81 -382 44z m237 -21 c131 -30 240 -120 301
-247 35 -74 37 -83 37 -178 0 -80 -5 -112 -23 -161 -43 -114 -150 -219 -264
-260 -60 -22 -174 -29 -238 -15 -136 29 -245 117 -308 248 -35 75 -37 82 -37
183 0 100 2 108 37 182 59 124 158 210 278 242 64 17 157 20 217 6z"/>
<path d="M332 807 c-29 -29 -52 -56 -52 -60 0 -4 103 -7 228 -7 l228 0 52 53
c29 29 52 56 52 60 0 4 -103 7 -228 7 l-228 0 -52 -53z"/>
<path d="M280 662 c0 -4 24 -31 53 -60 l53 -52 228 0 c131 0 226 4 224 9 -1 5
-25 32 -51 60 l-48 51 -229 0 c-127 0 -230 -4 -230 -8z"/>
<path d="M328 425 c-27 -29 -48 -56 -48 -59 0 -3 103 -6 228 -6 l228 0 52 53
c29 29 52 56 52 60 0 4 -105 7 -232 6 l-233 0 -47 -54z"/>
</g>
</svg>
