<svg xmlns="http://www.w3.org/2000/svg" width="247" height="41" fill="#fff">
  <path
    fill-rule="evenodd"
    d="M7.851 31.237a1.56 1.56 0 0 1 .522-.377 1.57 1.57 0 0 1 .63-.135h35.775a.796.796 0 0 1 .428.132.79.79 0 0 1 .288.343.795.795 0 0 1-.135.848l-7.624 8.407a1.559 1.559 0 0 1-1.152.512H.807a.796.796 0 0 1-.773-.919.797.797 0 0 1 .192-.404l7.625-8.407zm37.508-6.981a.797.797 0 0 1-.136 1.222.786.786 0 0 1-.444.127H9.003a1.554 1.554 0 0 1-1.152-.513L.226 16.711a.793.793 0 0 1 .58-1.349h35.775c.217.001.432.046.63.135a1.56 1.56 0 0 1 .522.378l7.624 8.381zM7.851.512a1.56 1.56 0 0 1 .522-.377A1.57 1.57 0 0 1 9.003 0h35.775a.796.796 0 0 1 .773.919.797.797 0 0 1-.192.404L37.734 9.73a1.559 1.559 0 0 1-1.152.512H.807a.796.796 0 0 1-.773-.919.797.797 0 0 1 .192-.404L7.851.512z"/>
  <path
    d="M204.415 23.917h-3.204V41h3.204V23.917zm-42.189 3.203V41h3.204v-5.872h11.215V41h3.204V27.12a3.2 3.2 0 0 0-.938-2.265 3.204 3.204 0 0 0-2.266-.938H165.43a3.2 3.2 0 0 0-3.204 3.203zm14.419 4.805H165.43V27.12h11.215v4.805zm21.896-8.008H181.45v3.203h6.943V41h3.205V27.12h6.943v-3.203zM76.882 27.12v-3.203h-14.42a2.67 2.67 0 0 0-2.67 2.669V41h3.204v-6.94h13.886v-3.203H62.996V27.12h13.886zm59.708-3.203v13.88h-1.068l-7.396-12.812a2.13 2.13 0 0 0-.782-.782 2.14 2.14 0 0 0-1.067-.286h-3.038a2.137 2.137 0 0 0-2.136 2.135V41h3.204V27.12h1.067l7.397 12.812a2.14 2.14 0 0 0 1.85 1.068h3.038a2.14 2.14 0 0 0 1.51-.625c.4-.4.625-.944.625-1.51V23.917h-3.204zm106.705 0v13.88h-1.068l-7.396-12.812a2.13 2.13 0 0 0-1.849-1.068h-3.038a2.14 2.14 0 0 0-1.512.625c-.4.4-.624.944-.624 1.51V41h3.204V27.12h1.067l7.396 12.812c.189.325.458.594.782.782a2.14 2.14 0 0 0 1.069.286h3.038a2.14 2.14 0 0 0 2.136-2.135V23.917h-3.205zm-89.616 0h-10.681V41h10.681a5.345 5.345 0 0 0 3.777-1.563 5.34 5.34 0 0 0 1.564-3.775v-6.406a5.34 5.34 0 0 0-1.564-3.775 5.346 5.346 0 0 0-3.777-1.564zm2.136 11.745a2.13 2.13 0 0 1-.626 1.51c-.4.4-.943.626-1.51.626h-7.477V27.12h7.477a2.13 2.13 0 0 1 2.136 2.136v6.406zm-41.55-11.745v13.88h-10.681v-13.88h-3.204v13.88a3.2 3.2 0 0 0 .938 2.265 3.204 3.204 0 0 0 2.266.938h10.681c.85 0 1.665-.337 2.266-.938a3.2 3.2 0 0 0 .939-2.265v-13.88h-3.205zM80.087 27.12v10.677a3.2 3.2 0 0 0 .939 2.265 3.204 3.204 0 0 0 2.266.938h10.681c.85 0 1.665-.337 2.266-.938a3.2 3.2 0 0 0 .938-2.265V27.12c0-.85-.338-1.664-.938-2.265a3.2 3.2 0 0 0-2.266-.938H83.291a3.204 3.204 0 0 0-3.205 3.203zm13.886 10.677H83.291V27.12h10.681v10.677zM208.047 27.12v10.677a3.2 3.2 0 0 0 .938 2.265 3.204 3.204 0 0 0 2.266.938h10.681c.85 0 1.664-.337 2.266-.938a3.2 3.2 0 0 0 .939-2.265V27.12a3.202 3.202 0 0 0-3.205-3.203h-10.681c-.85 0-1.665.337-2.266.938a3.2 3.2 0 0 0-.938 2.265zm13.885 10.677h-10.681V27.12h10.681v10.677zM75.913 3.5V.104H63.026a3.37 3.37 0 0 0-3.373 3.372v3.446a3.37 3.37 0 0 0 .988 2.384 3.377 3.377 0 0 0 2.385.988h10.216v3.394H59.896v3.397h13.371c.894 0 1.752-.355 2.385-.988a3.37 3.37 0 0 0 .988-2.384v-3.444a3.37 3.37 0 0 0-.988-2.384 3.377 3.377 0 0 0-2.385-.988H63.051V3.5h12.862zm3.51-.025v10.237a3.37 3.37 0 0 0 .988 2.384 3.377 3.377 0 0 0 2.385.988h10.24c.894 0 1.752-.355 2.385-.988a3.37 3.37 0 0 0 .988-2.384V3.475a3.37 3.37 0 0 0-.988-2.384 3.377 3.377 0 0 0-2.385-.988h-10.24a3.37 3.37 0 0 0-3.373 3.372zm13.589 10.212H82.814V3.5h10.191l.007 10.187zM115.56 3.475v13.608h3.397v-5.579h9.953v5.579h3.395V3.475a3.37 3.37 0 0 0-3.373-3.372h-9.999c-.895 0-1.753.355-2.386.988a3.37 3.37 0 0 0-.987 2.384zm13.35 4.633h-9.95V3.5h9.953l-.003 4.608zm26.433-4.633v13.608h3.391v-5.579h9.951v5.579h3.397V3.475a3.37 3.37 0 0 0-3.373-3.372h-9.992c-.895 0-1.753.355-2.386.988a3.37 3.37 0 0 0-.988 2.384zm13.347 4.633h-9.956V3.5h9.951l.005 4.608zM148.926.104v13.583h-1.35l-4.883-12.17a2.254 2.254 0 0 0-2.087-1.414h-3.024c-.598 0-1.169.237-1.59.658a2.24 2.24 0 0 0-.659 1.589v14.732h3.389V3.5h1.359l4.871 12.172a2.26 2.26 0 0 0 .828 1.026 2.25 2.25 0 0 0 1.262.386h3.024a2.25 2.25 0 0 0 2.249-2.248V.104h-3.389zm-46.098 13.583V.104h-3.394v13.608a3.37 3.37 0 0 0 .988 2.384 3.377 3.377 0 0 0 2.385.988h10.216v-3.396h-10.195z"/>
</svg>
